<?xml version="1.0" encoding="UTF-8"?>
<!DOCTYPE svg PUBLIC "-//W3C//DTD SVG 1.1//EN" "http://www.w3.org/Graphics/SVG/1.1/DTD/svg11.dtd">
<svg xmlns="http://www.w3.org/2000/svg" version="1.1" width="512px" height="512px" style="shape-rendering:geometricPrecision; text-rendering:geometricPrecision; image-rendering:optimizeQuality; fill-rule:evenodd; clip-rule:evenodd" xmlns:xlink="http://www.w3.org/1999/xlink">
<g><path style="opacity:0.991" fill="#C42030" d="M -0.5,332.5 C -0.5,281.167 -0.5,229.833 -0.5,178.5C 3.22097,166.278 11.221,158.111 23.5,154C 53.4601,152.706 83.4601,152.039 113.5,152C 169.879,106.619 226.545,61.6195 283.5,17C 295.548,14.4343 303.381,18.9343 307,30.5C 307.667,180.5 307.667,330.5 307,480.5C 303.381,492.066 295.548,496.566 283.5,494C 226.545,449.381 169.879,404.381 113.5,359C 83.4601,358.961 53.4601,358.294 23.5,357C 11.221,352.889 3.22097,344.722 -0.5,332.5 Z"/></g>
<g><path style="opacity:0.964" fill="#C42030" d="M 511.5,233.5 C 511.5,248.167 511.5,262.833 511.5,277.5C 505.414,335.502 481.748,385.002 440.5,426C 430.358,431.839 421.525,430.339 414,421.5C 410.454,414.65 410.787,407.983 415,401.5C 464.038,351.384 483.704,291.384 474,221.5C 466.395,177.616 446.729,140.283 415,109.5C 408.79,97.4991 411.624,88.3324 423.5,82C 428.257,81.1902 432.924,81.5236 437.5,83C 480.69,123.882 505.357,174.049 511.5,233.5 Z"/></g>
<g><path style="opacity:0.963" fill="#C42030" d="M 376.5,129.5 C 382.233,128.895 387.566,130.062 392.5,133C 439.814,182.757 454.314,240.923 436,307.5C 427.281,334.125 413.114,357.292 393.5,377C 380.424,385.083 370.591,382.25 364,368.5C 363.063,363.597 363.73,358.93 366,354.5C 408.114,310.603 418.781,259.936 398,202.5C 390.291,185.072 379.624,169.739 366,156.5C 360.779,143.984 364.279,134.984 376.5,129.5 Z"/></g>
</svg>
