<?xml version="1.0" encoding="UTF-8"?>
<!DOCTYPE svg PUBLIC "-//W3C//DTD SVG 1.1//EN" "http://www.w3.org/Graphics/SVG/1.1/DTD/svg11.dtd">
<svg xmlns="http://www.w3.org/2000/svg" version="1.1" width="512px" height="512px" viewBox="-256 -256 1024 1024" style="shape-rendering:geometricPrecision; text-rendering:geometricPrecision; image-rendering:optimizeQuality; fill-rule:evenodd; clip-rule:evenodd" xmlns:xlink="http://www.w3.org/1999/xlink">
<g><path style="opacity:0.981" fill="#ffffff" d="M 292.5,-0.5 C 300.833,-0.5 309.167,-0.5 317.5,-0.5C 348.488,7.32541 365.821,27.1587 369.5,59C 367.791,86.0327 354.457,104.699 329.5,115C 295.931,125.365 268.764,116.532 248,88.5C 233.171,55.3044 240.671,28.471 270.5,8C 277.607,4.24803 284.94,1.41469 292.5,-0.5 Z"/></g>
<g><path style="opacity:0.985" fill="#ffffff" d="M 276.5,511.5 C 265.167,511.5 253.833,511.5 242.5,511.5C 194.553,503.964 172.72,475.964 177,427.5C 178.021,417.394 179.688,407.394 182,397.5C 194.149,355.718 205.483,313.718 216,271.5C 219.5,258.371 219.166,245.371 215,232.5C 210.526,224.671 203.692,220.504 194.5,220C 186.833,219.333 179.167,219.333 171.5,220C 161.418,222.7 151.418,225.366 141.5,228C 144.01,217.961 146.676,207.961 149.5,198C 169.135,190.01 189.135,183.01 209.5,177C 233.183,171.048 256.85,171.048 280.5,177C 310.64,187.449 325.974,208.616 326.5,240.5C 326.173,253.246 325.007,265.913 323,278.5C 312,318.5 301,358.5 290,398.5C 287.375,410.042 285.542,421.708 284.5,433.5C 284.848,440.442 286.348,447.109 289,453.5C 292.475,458.626 297.309,461.792 303.5,463C 323.596,466.889 342.929,464.389 361.5,455.5C 361.833,455.833 362.167,456.167 362.5,456.5C 359.85,466.433 357.517,476.433 355.5,486.5C 337.573,493.088 319.573,499.588 301.5,506C 293.131,508.304 284.798,510.138 276.5,511.5 Z"/></g>
</svg>
