<?xml version="1.0" standalone="no"?>
<!DOCTYPE svg PUBLIC "-//W3C//DTD SVG 20010904//EN"
 "http://www.w3.org/TR/2001/REC-SVG-20010904/DTD/svg10.dtd">
<svg version="1.0" xmlns="http://www.w3.org/2000/svg"
 width="512.000000pt" height="512.000000pt" viewBox="0 0 512.000000 512.000000"
 preserveAspectRatio="xMidYMid meet">

<g transform="translate(0.000000,512.000000) scale(0.100000,-0.100000)"
fill="#131E3A" stroke="none">
<path d="M958 4510 c-118 -45 -180 -109 -222 -231 -14 -39 -16 -237 -16 -1634
0 -1540 1 -1592 19 -1642 45 -122 108 -184 232 -227 37 -13 116 -16 487 -16
l442 0 0 115 0 114 -427 3 c-471 3 -456 1 -500 66 -17 26 -18 95 -18 1587 0
1492 1 1561 18 1587 10 15 30 35 45 45 26 17 76 18 925 21 l897 3 0 -257 c0
-173 4 -270 12 -298 16 -54 93 -131 144 -145 23 -7 143 -11 297 -11 l257 0 0
-180 0 -180 115 0 116 0 -3 270 -3 270 -365 366 c-201 201 -377 372 -392 380
-23 12 -175 14 -1020 13 -927 -1 -996 -2 -1040 -19z"/>
<path d="M1935 3067 l-35 -35 0 -556 0 -556 115 0 115 0 0 179 0 180 223 3
224 3 39 30 c49 37 60 50 84 100 18 36 20 64 20 275 0 287 -9 314 -117 381
-37 24 -42 24 -336 27 l-298 3 -34 -34z m555 -377 l0 -180 -180 0 -180 0 0
180 0 180 180 0 180 0 0 -180z"/>
<path d="M2903 3090 c-13 -5 -32 -24 -43 -42 -19 -32 -20 -50 -20 -536 0 -554
-1 -542 62 -576 30 -16 60 -17 313 -14 250 3 284 5 315 22 49 26 88 64 111
108 18 35 19 64 19 458 0 462 0 458 -61 519 -68 68 -82 71 -394 70 -154 0
-290 -4 -302 -9z m527 -575 l0 -355 -175 0 -175 0 0 355 0 355 175 0 175 0 0
-355z"/>
<path d="M3843 3090 c-13 -5 -32 -24 -43 -42 -19 -32 -20 -48 -18 -578 l3
-545 59 -5 58 -5 -92 -139 c-50 -77 -94 -145 -97 -153 -4 -10 10 -13 61 -13
l66 0 0 -235 0 -235 65 0 65 0 0 235 0 235 70 0 c39 0 70 2 70 5 0 3 -45 73
-99 155 l-100 150 55 0 54 0 0 240 0 240 235 0 235 0 0 115 0 115 -235 0 -235
0 0 120 0 120 235 0 235 0 0 115 0 115 -312 -1 c-172 0 -323 -4 -335 -9z"/>
<path d="M3330 1000 l0 -240 580 0 580 0 0 240 0 240 -105 0 -105 0 0 -135 0
-135 -375 0 -375 0 0 135 0 135 -100 0 -100 0 0 -240z"/>
</g>
</svg>
