<?xml version="1.0" encoding="UTF-8"?>
<!DOCTYPE svg PUBLIC "-//W3C//DTD SVG 1.1//EN" "http://www.w3.org/Graphics/SVG/1.1/DTD/svg11.dtd">
<svg xmlns="http://www.w3.org/2000/svg" version="1.1" width="512px" height="512px" viewBox="-256 -256 1024 1024" style="shape-rendering:geometricPrecision; text-rendering:geometricPrecision; image-rendering:optimizeQuality; fill-rule:evenodd; clip-rule:evenodd" xmlns:xlink="http://www.w3.org/1999/xlink">
<g><path style="opacity:0.996" fill="#ffffff" d="M 155.5,-0.5 C 230.5,-0.5 305.5,-0.5 380.5,-0.5C 380.333,37.8348 380.5,76.1681 381,114.5C 381.833,123.333 386.667,128.167 395.5,129C 433.832,129.5 472.165,129.667 510.5,129.5C 510.667,245.167 510.5,360.834 510,476.5C 504.984,494.682 493.484,506.348 475.5,511.5C 393.5,511.5 311.5,511.5 229.5,511.5C 269.47,481.932 292.803,442.266 299.5,392.5C 341.496,391.667 383.496,391.167 425.5,391C 439.528,387.437 443.028,379.271 436,366.5C 433.044,363.773 429.544,362.273 425.5,362C 383.496,361.833 341.496,361.333 299.5,360.5C 296.865,339.932 291.198,320.266 282.5,301.5C 330.168,301.667 377.834,301.5 425.5,301C 439.528,297.437 443.028,289.271 436,276.5C 433.044,273.773 429.544,272.273 425.5,272C 370.833,271.667 316.167,271.333 261.5,271C 224.124,228.59 177.124,209.09 120.5,212.5C 120.333,153.166 120.5,93.8324 121,34.5C 126.016,16.3183 137.516,4.65165 155.5,-0.5 Z M 205.5,181.5 C 278.834,181.333 352.167,181.5 425.5,182C 439.528,185.563 443.028,193.729 436,206.5C 433.044,209.227 429.544,210.727 425.5,211C 352.167,211.667 278.833,211.667 205.5,211C 192.214,207.927 188.381,200.094 194,187.5C 197.308,184.265 201.141,182.265 205.5,181.5 Z"/></g>
<g><path style="opacity:0.973" fill="#ffffff" d="M 410.5,7.5 C 441.299,37.7985 471.965,68.2985 502.5,99C 471.835,99.5 441.168,99.6666 410.5,99.5C 410.5,68.8333 410.5,38.1667 410.5,7.5 Z"/></g>
<g><path style="opacity:0.987" fill="#ffffff" d="M 151.5,511.5 C 140.833,511.5 130.167,511.5 119.5,511.5C 61.5814,502.092 23.4147,469.426 5,413.5C -8.0374,358.289 6.12927,311.456 47.5,273C 88.8714,240.61 134.538,232.944 184.5,250C 233.634,270.808 262.134,307.641 270,360.5C 274.281,418.438 252.114,462.938 203.5,494C 187.085,502.971 169.752,508.805 151.5,511.5 Z M 179.5,335.5 C 196.286,335.073 201.786,342.739 196,358.5C 171.833,382.667 147.667,406.833 123.5,431C 117.5,434.333 111.5,434.333 105.5,431C 93.2685,419.438 81.7685,407.271 71,394.5C 70.0936,377.695 77.5936,372.195 93.5,378C 100.167,384.667 106.833,391.333 113.5,398C 114.167,398.667 114.833,398.667 115.5,398C 136.424,376.574 157.757,355.741 179.5,335.5 Z"/></g>
</svg>
