<?xml version="1.0" encoding="UTF-8"?>
<!DOCTYPE svg PUBLIC "-//W3C//DTD SVG 1.1//EN" "http://www.w3.org/Graphics/SVG/1.1/DTD/svg11.dtd">
<svg xmlns="http://www.w3.org/2000/svg" version="1.1" width="512px" height="512px" viewBox="-256 -256 1024 1024" style="shape-rendering:geometricPrecision; text-rendering:geometricPrecision; image-rendering:optimizeQuality; fill-rule:evenodd; clip-rule:evenodd" xmlns:xlink="http://www.w3.org/1999/xlink">
<g><path style="opacity:0.986" fill="#ffffff" d="M 238.5,-0.5 C 249.833,-0.5 261.167,-0.5 272.5,-0.5C 337.959,10.115 380.793,47.115 401,110.5C 415.038,174.388 397.205,227.222 347.5,269C 333.474,280.013 317.807,287.846 300.5,292.5C 300.667,312.836 300.5,333.169 300,353.5C 293.697,376.063 278.864,387.729 255.5,388.5C 227.616,386.449 212.449,371.449 210,343.5C 209.333,313.833 209.333,284.167 210,254.5C 211.235,231.189 223.069,216.356 245.5,210C 279.209,211.086 301.709,195.92 313,164.5C 318.518,128.693 304.352,104.527 270.5,92C 239.017,86.1596 215.85,97.3262 201,125.5C 197.297,136.511 195.297,147.845 195,159.5C 190.772,176.062 180.605,187.229 164.5,193C 134.981,198.998 115.481,187.831 106,159.5C 103.51,96.2958 129.343,48.7958 183.5,17C 200.925,7.90175 219.258,2.06841 238.5,-0.5 Z"/></g>
<g><path style="opacity:0.976" fill="#ffffff" d="M 265.5,511.5 C 258.833,511.5 252.167,511.5 245.5,511.5C 219.354,502.573 207.854,484.24 211,456.5C 220.481,428.169 239.981,417.002 269.5,423C 293.49,432.8 303.656,450.633 300,476.5C 294.984,494.682 283.484,506.348 265.5,511.5 Z"/></g>
</svg>
