<?xml version="1.0" encoding="UTF-8"?>
<!DOCTYPE svg PUBLIC "-//W3C//DTD SVG 1.1//EN" "http://www.w3.org/Graphics/SVG/1.1/DTD/svg11.dtd">
<svg xmlns="http://www.w3.org/2000/svg" version="1.1" width="512px" height="512px" style="shape-rendering:geometricPrecision; text-rendering:geometricPrecision; image-rendering:optimizeQuality; fill-rule:evenodd; clip-rule:evenodd" xmlns:xlink="http://www.w3.org/1999/xlink">
<g><path style="opacity:0.985" fill="#C42030" d="M 99.5,41.5 C 165.17,41.1667 230.837,41.5 296.5,42.5C 288.69,51.7884 283.857,62.4551 282,74.5C 281.5,109.498 281.333,144.498 281.5,179.5C 202.776,179.991 124.109,179.491 45.5,178C 43.5125,176.681 42.3459,174.848 42,172.5C 41.3333,148.167 41.3333,123.833 42,99.5C 47.3455,66.3216 66.5122,46.9883 99.5,41.5 Z"/></g>
<g><path style="opacity:0.987" fill="#C42030" d="M 329.5,41.5 C 341.818,40.6046 353.151,43.4379 363.5,50C 370.396,56.2922 374.229,64.1255 375,73.5C 375.667,96.5 375.667,119.5 375,142.5C 331,186.5 287,230.5 243,274.5C 235.63,291.578 227.963,308.578 220,325.5C 214.287,344.028 219.787,358.195 236.5,368C 245.355,372.169 254.355,372.502 263.5,369C 279.503,360.83 295.836,353.497 312.5,347C 333.638,326.862 354.472,306.362 375,285.5C 375.333,336.167 375.667,386.833 376,437.5C 377.674,449.374 382.507,459.707 390.5,468.5C 324.503,469.667 258.503,469.833 192.5,469C 159.126,464.944 135.293,447.777 121,417.5C 118.065,410.429 116.065,403.096 115,395.5C 114.5,328.834 114.333,262.167 114.5,195.5C 174.25,195.992 233.917,195.492 293.5,194C 294.667,192.833 295.833,191.667 297,190.5C 297.035,149.801 297.701,109.134 299,68.5C 303.749,53.2443 313.916,44.2443 329.5,41.5 Z"/></g>
<g><path style="opacity:0.974" fill="#C42030" d="M 403.5,140.5 C 409.892,139.791 415.892,140.957 421.5,144C 429.333,151.833 437.167,159.667 445,167.5C 449.667,175.833 449.667,184.167 445,192.5C 397.833,239.667 350.667,286.833 303.5,334C 301.029,334.706 298.695,334.373 296.5,333C 282.667,319.167 268.833,305.333 255,291.5C 254.245,288.697 254.578,286.03 256,283.5C 301.833,237.667 347.667,191.833 393.5,146C 396.767,143.87 400.1,142.037 403.5,140.5 Z"/></g>
<g><path style="opacity:0.937" fill="#C42030" d="M 246.5,305.5 C 258.465,316.965 270.298,328.631 282,340.5C 282.617,341.449 282.451,342.282 281.5,343C 271.823,348.007 261.823,352.173 251.5,355.5C 238.422,353.922 232.588,346.589 234,333.5C 237.904,324.027 242.071,314.694 246.5,305.5 Z"/></g>
<g><path style="opacity:0.975" fill="#C42030" d="M 391.5,331.5 C 415.169,331.333 438.836,331.5 462.5,332C 464.848,332.346 466.681,333.513 468,335.5C 469.645,368.773 469.979,402.106 469,435.5C 464.723,456.406 451.89,467.739 430.5,469.5C 409.825,467.659 396.992,456.659 392,436.5C 391.5,401.502 391.333,366.502 391.5,331.5 Z"/></g>
</svg>
