<?xml version="1.0" encoding="UTF-8"?>
<!DOCTYPE svg PUBLIC "-//W3C//DTD SVG 1.1//EN" "http://www.w3.org/Graphics/SVG/1.1/DTD/svg11.dtd">
<svg xmlns="http://www.w3.org/2000/svg" version="1.1" width="512px" height="512px" style="shape-rendering:geometricPrecision; text-rendering:geometricPrecision; image-rendering:optimizeQuality; fill-rule:evenodd; clip-rule:evenodd" xmlns:xlink="http://www.w3.org/1999/xlink">
<g><path fill="#ccc" d="M 511.5,249.5 C 511.5,253.5 511.5,257.5 511.5,261.5C 469.934,331.219 410.6,379.053 333.5,405C 218.767,432.75 121.267,403.584 41,317.5C 25.3755,300.059 11.5422,281.392 -0.5,261.5C -0.5,257.5 -0.5,253.5 -0.5,249.5C 41.0662,179.781 100.4,131.947 177.5,106C 292.22,78.2452 389.72,107.412 470,193.5C 485.624,210.941 499.458,229.608 511.5,249.5 Z M 254.5,127.5 C 319.766,129.521 376.433,152.354 424.5,196C 443.934,213.92 460.934,233.753 475.5,255.5C 445.272,301.901 405.272,337.068 355.5,361C 256.367,400.645 166.701,385.311 86.5,315C 67.0663,297.08 50.0663,277.247 35.5,255.5C 65.7276,209.099 105.728,173.932 155.5,150C 187.109,135.782 220.109,128.282 254.5,127.5 Z M 254.5,191.5 C 285.936,193.777 306.769,209.777 317,239.5C 323.113,272.435 311.613,296.935 282.5,313C 248.081,325.638 220.581,316.805 200,286.5C 185.943,256.456 190.777,229.956 214.5,207C 226.276,197.604 239.609,192.438 254.5,191.5 Z"/></g>
<g><path fill="#ccc" d="M 241.5,159.5 C 291,155.898 325.834,176.565 346,221.5C 360.531,270.916 346.698,310.083 304.5,339C 282.177,351.387 258.51,354.887 233.5,349.5C 192.495,337.995 167.995,311.328 160,269.5C 155.912,219.975 176.412,185.142 221.5,165C 228.208,162.826 234.875,160.993 241.5,159.5 Z M 254.5,191.5 C 239.609,192.438 226.276,197.604 214.5,207C 190.777,229.956 185.943,256.456 200,286.5C 220.581,316.805 248.081,325.638 282.5,313C 311.613,296.935 323.113,272.435 317,239.5C 306.769,209.777 285.936,193.777 254.5,191.5 Z"/></g>
</svg>
