<?xml version="1.0" encoding="UTF-8"?>
<!DOCTYPE svg PUBLIC "-//W3C//DTD SVG 1.1//EN" "http://www.w3.org/Graphics/SVG/1.1/DTD/svg11.dtd">
<svg xmlns="http://www.w3.org/2000/svg" version="1.1" width="512px" height="512px" style="shape-rendering:geometricPrecision; text-rendering:geometricPrecision; image-rendering:optimizeQuality; fill-rule:evenodd; clip-rule:evenodd" xmlns:xlink="http://www.w3.org/1999/xlink">
<g><path style="opacity:0.993" fill="#C42030" d="M 511.5,47.5 C 511.5,186.167 511.5,324.833 511.5,463.5C 506.442,481.885 494.442,492.719 475.5,496C 328.833,496.667 182.167,496.667 35.5,496C 16.558,492.719 4.55797,481.885 -0.5,463.5C -0.5,324.833 -0.5,186.167 -0.5,47.5C 4.55797,29.1147 16.558,18.2813 35.5,15C 182.167,14.3333 328.833,14.3333 475.5,15C 494.442,18.2813 506.442,29.1147 511.5,47.5 Z M 51.5,66.5 C 68.8333,66.5 86.1667,66.5 103.5,66.5C 103.5,85.8333 103.5,105.167 103.5,124.5C 86.1667,124.5 68.8333,124.5 51.5,124.5C 51.5,105.167 51.5,85.8333 51.5,66.5 Z M 156.5,66.5 C 180.833,66.5 205.167,66.5 229.5,66.5C 229.5,85.8333 229.5,105.167 229.5,124.5C 205.167,124.5 180.833,124.5 156.5,124.5C 156.5,105.167 156.5,85.8333 156.5,66.5 Z M 281.5,66.5 C 305.833,66.5 330.167,66.5 354.5,66.5C 354.5,85.8333 354.5,105.167 354.5,124.5C 330.167,124.5 305.833,124.5 281.5,124.5C 281.5,105.167 281.5,85.8333 281.5,66.5 Z M 407.5,66.5 C 424.833,66.5 442.167,66.5 459.5,66.5C 459.5,85.8333 459.5,105.167 459.5,124.5C 442.167,124.5 424.833,124.5 407.5,124.5C 407.5,105.167 407.5,85.8333 407.5,66.5 Z M 218.5,193.5 C 222.273,193.263 225.94,193.763 229.5,195C 255.429,211.212 280.929,228.046 306,245.5C 312.498,255.373 310.665,263.54 300.5,270C 276.663,285.084 252.996,300.418 229.5,316C 220.783,319.873 214.95,317.373 212,308.5C 211.333,273.167 211.333,237.833 212,202.5C 213.211,198.721 215.377,195.721 218.5,193.5 Z M 51.5,386.5 C 68.8333,386.5 86.1667,386.5 103.5,386.5C 103.5,405.833 103.5,425.167 103.5,444.5C 86.1667,444.5 68.8333,444.5 51.5,444.5C 51.5,425.167 51.5,405.833 51.5,386.5 Z M 156.5,386.5 C 180.833,386.5 205.167,386.5 229.5,386.5C 229.5,405.833 229.5,425.167 229.5,444.5C 205.167,444.5 180.833,444.5 156.5,444.5C 156.5,425.167 156.5,405.833 156.5,386.5 Z M 281.5,386.5 C 305.833,386.5 330.167,386.5 354.5,386.5C 354.5,405.833 354.5,425.167 354.5,444.5C 330.167,444.5 305.833,444.5 281.5,444.5C 281.5,425.167 281.5,405.833 281.5,386.5 Z M 407.5,386.5 C 424.833,386.5 442.167,386.5 459.5,386.5C 459.5,405.833 459.5,425.167 459.5,444.5C 442.167,444.5 424.833,444.5 407.5,444.5C 407.5,425.167 407.5,405.833 407.5,386.5 Z"/></g>
</svg>
